<?xml version="1.0" standalone="no"?>
<!DOCTYPE svg PUBLIC "-//W3C//DTD SVG 20010904//EN"
 "http://www.w3.org/TR/2001/REC-SVG-20010904/DTD/svg10.dtd">
<svg version="1.0" xmlns="http://www.w3.org/2000/svg"
 width="500.000000pt" height="500.000000pt" viewBox="0 0 500.000000 500.000000"
 preserveAspectRatio="xMidYMid meet">
<metadata>
Created by potrace 1.11, written by Peter Selinger 2001-2013
</metadata>
<g transform="translate(0.000000,500.000000) scale(0.100000,-0.100000)"
fill="#000000" stroke="none">
<path d="M2475 4720 c-3 -5 -1 -10 4 -10 6 0 11 5 11 10 0 6 -2 10 -4 10 -3 0
-8 -4 -11 -10z"/>
<path d="M2506 4722 c-3 -5 1 -9 9 -9 8 0 12 4 9 9 -3 4 -7 8 -9 8 -2 0 -6 -4
-9 -8z"/>
<path d="M2550 4720 c0 -5 5 -10 11 -10 5 0 7 5 4 10 -3 6 -8 10 -11 10 -2 0
-4 -4 -4 -10z"/>
<path d="M2447 4686 c-6 -15 -10 -16 -22 -6 -13 11 -14 10 -9 -3 8 -21 -22
-51 -50 -52 -12 0 -24 8 -28 20 -6 19 -6 19 -7 -1 -1 -12 7 -28 16 -35 11 -10
14 -10 9 -1 -4 7 -2 12 4 12 7 0 10 -6 8 -12 -3 -7 -11 -13 -19 -13 -8 0 -14
-4 -14 -10 0 -12 -78 -89 -94 -92 -6 -2 -11 2 -11 7 0 17 -38 -12 -50 -38 -6
-15 -16 -22 -25 -18 -12 4 -13 1 -7 -12 10 -21 10 -42 0 -42 -5 0 -13 0 -20 0
-9 0 -9 3 0 12 7 7 12 16 12 20 0 4 -8 0 -18 -9 -15 -14 -15 -20 -5 -26 14 -9
9 -27 -8 -27 -6 0 -7 5 -4 10 3 6 1 10 -4 10 -6 0 -11 -5 -11 -11 0 -5 -4 -7
-10 -4 -5 3 -10 1 -10 -5 0 -7 7 -10 15 -7 8 4 17 2 20 -3 4 -6 0 -11 -7 -12
-7 0 -17 -2 -23 -3 -5 -2 -19 -3 -30 -4 -19 -2 -18 -3 2 -11 22 -9 22 -10 -19
-49 -22 -22 -46 -37 -51 -34 -5 3 2 12 16 20 27 14 28 43 0 43 -8 0 -11 5 -7
12 5 7 3 8 -6 3 -10 -6 -7 -12 11 -26 15 -12 19 -19 10 -19 -8 0 -25 -9 -37
-21 -23 -21 -51 -18 -37 4 5 8 2 8 -9 0 -8 -7 -18 -10 -21 -6 -4 3 -7 1 -7 -6
0 -7 6 -11 14 -8 7 3 18 1 24 -5 8 -8 16 -8 27 2 10 8 15 9 15 1 0 -17 -4 -26
-12 -24 -4 2 -10 -6 -13 -17 -6 -20 -35 -28 -35 -10 0 17 -38 -12 -50 -38 -6
-15 -16 -22 -25 -18 -12 4 -13 1 -7 -12 11 -22 10 -42 -3 -41 -5 0 -9 9 -8 19
3 19 2 19 -15 2 -13 -12 -14 -18 -5 -20 17 -4 16 -14 0 -37 -11 -14 -16 -15
-22 -5 -5 8 -4 11 2 7 5 -3 10 0 10 8 0 8 -4 15 -9 15 -4 0 -8 -5 -8 -11 0 -5
-5 -7 -12 -3 -7 5 -8 3 -2 -7 14 -23 13 -37 -3 -51 -9 -7 -19 -12 -22 -11 -3
0 -5 -4 -3 -10 2 -9 0 -8 -9 0 -10 10 -9 15 1 28 7 9 19 14 26 11 8 -3 11 0 8
9 -8 19 -39 0 -54 -33 -6 -15 -16 -22 -25 -18 -12 4 -13 1 -7 -12 10 -21 10
-42 0 -42 -5 0 -13 0 -20 0 -9 0 -9 3 0 12 7 7 12 16 12 20 0 4 -8 0 -18 -9
-15 -14 -15 -20 -5 -26 14 -9 9 -27 -8 -27 -6 0 -7 5 -4 10 3 6 1 10 -4 10 -6
0 -11 -5 -11 -11 0 -5 -4 -7 -10 -4 -5 3 -10 1 -10 -5 0 -7 7 -10 15 -7 8 4
17 2 20 -3 4 -6 0 -11 -7 -12 -7 0 -17 -2 -23 -3 -5 -2 -19 -3 -30 -4 -19 -2
-18 -3 2 -11 22 -9 22 -10 -19 -49 -22 -22 -46 -37 -51 -34 -5 3 2 12 16 20
27 14 28 43 0 43 -8 0 -11 5 -7 12 5 7 3 8 -6 3 -10 -6 -7 -12 11 -26 15 -12
19 -19 10 -19 -8 0 -25 -9 -37 -21 -18 -17 -26 -19 -43 -10 -12 7 -21 9 -21 7
0 -3 9 -10 21 -16 15 -9 24 -8 35 1 10 8 14 8 14 0 0 -18 -4 -26 -12 -24 -5 2
-8 -1 -8 -6 0 -11 -60 -73 -61 -63 -1 4 0 12 1 17 1 6 -2 7 -6 3 -4 -4 -14 -2
-23 5 -12 9 -11 7 2 -13 21 -30 21 -37 3 -37 -8 0 -15 3 -14 6 3 31 -15 43
-25 17 -4 -11 -1 -13 11 -9 9 3 14 3 10 -2 -4 -4 -3 -14 2 -20 7 -8 3 -18 -11
-31 -12 -10 -24 -19 -28 -19 -3 0 -5 -4 -3 -10 2 -5 -2 -5 -9 2 -10 10 -9 15
1 28 7 9 19 14 26 11 8 -3 11 0 8 9 -5 11 -10 12 -25 2 -10 -6 -19 -14 -19
-17 0 -4 -7 -15 -15 -26 -14 -18 -15 -18 -12 5 1 16 -4 25 -15 26 -10 2 -18
-1 -18 -7 0 -6 7 -7 16 -4 12 5 15 2 10 -10 -9 -23 3 -37 20 -23 15 12 19 1 6
-16 -10 -14 -32 -17 -32 -5 0 17 -38 -12 -50 -38 -6 -15 -16 -22 -25 -18 -12
4 -13 1 -7 -12 11 -22 10 -43 -3 -39 -5 1 -9 10 -8 19 3 17 2 17 -15 0 -13
-12 -14 -18 -5 -20 17 -4 16 -14 0 -37 -11 -14 -16 -15 -22 -5 -5 8 -4 11 2 7
5 -3 10 0 10 8 0 8 -4 15 -9 15 -4 0 -8 -5 -8 -11 0 -5 -5 -7 -12 -3 -7 5 -8
3 -2 -7 18 -29 10 -50 -21 -61 -5 -1 -9 -7 -7 -13 2 -5 -2 -5 -9 2 -10 10 -9
15 1 28 7 9 19 14 26 11 8 -3 11 0 8 9 -8 19 -39 0 -54 -33 -6 -15 -16 -22
-25 -18 -12 4 -13 1 -7 -12 10 -21 10 -42 0 -42 -5 0 -13 0 -20 0 -9 0 -9 3 0
12 7 7 12 16 12 20 0 4 -8 0 -18 -9 -15 -14 -15 -20 -5 -26 14 -9 9 -27 -8
-27 -6 0 -7 5 -4 10 3 6 1 10 -4 10 -6 0 -11 -5 -11 -11 0 -5 -4 -7 -10 -4 -5
3 -10 1 -10 -5 0 -7 7 -10 15 -7 8 4 17 2 20 -3 4 -6 0 -11 -7 -12 -7 0 -17
-2 -23 -3 -5 -2 -19 -3 -30 -4 -19 -2 -18 -3 2 -11 22 -9 22 -10 -19 -49 -22
-22 -46 -37 -51 -34 -5 3 2 12 16 20 27 14 28 43 0 43 -8 0 -11 5 -7 12 5 7 3
8 -6 3 -10 -6 -7 -12 11 -26 15 -12 19 -19 10 -19 -8 0 -25 -9 -37 -21 -18
-17 -26 -19 -43 -10 -12 7 -21 9 -21 7 0 -3 9 -10 21 -16 15 -8 24 -8 33 0 10
8 15 7 19 -4 6 -14 -19 -44 -38 -45 -5 -1 -10 -5 -10 -10 0 -13 -14 -26 -28
-26 -7 -1 -11 -7 -9 -15 3 -12 1 -12 -9 -3 -10 10 -9 15 1 28 7 9 19 14 26 11
8 -3 11 0 8 9 -8 19 -39 0 -54 -33 -6 -15 -16 -22 -25 -18 -12 4 -13 1 -7 -12
10 -21 10 -42 0 -42 -5 0 -13 0 -20 0 -9 0 -9 3 0 12 7 7 12 16 12 20 0 4 -8
0 -18 -9 -15 -14 -15 -20 -5 -26 14 -9 9 -27 -8 -27 -6 0 -7 5 -4 10 3 6 1 10
-4 10 -6 0 -11 -5 -11 -11 0 -5 -4 -7 -10 -4 -5 3 -10 1 -10 -5 0 -7 7 -10 15
-7 8 4 17 2 20 -3 4 -6 0 -11 -7 -12 -7 0 -17 -2 -23 -3 -5 -2 -19 -3 -30 -4
-19 -2 -18 -3 2 -11 22 -9 22 -10 -19 -49 -22 -22 -46 -37 -51 -34 -5 3 2 12
16 20 27 14 28 43 0 43 -8 0 -11 5 -7 12 5 7 3 8 -6 3 -10 -6 -7 -12 11 -26
15 -12 19 -19 10 -19 -8 0 -25 -9 -37 -21 -18 -17 -26 -19 -43 -10 -12 7 -21
9 -21 7 0 -3 9 -10 21 -16 15 -8 24 -8 33 0 10 8 15 7 19 -4 6 -14 -20 -44
-32 -38 -3 1 -6 -1 -6 -5 0 -13 -43 -52 -49 -45 -3 3 -6 -2 -6 -12 0 -9 -4
-15 -10 -11 -5 3 -6 13 -3 22 4 11 3 14 -5 9 -7 -4 -10 -18 -8 -32 4 -18 0
-24 -14 -24 -10 0 -21 -7 -24 -16 -6 -15 -4 -15 11 -3 10 7 -6 -10 -35 -38
l-52 -52 71 -70 c39 -38 68 -74 65 -80 -4 -5 -1 -13 5 -17 8 -4 9 -3 5 4 -16
27 10 9 55 -39 27 -27 46 -55 43 -61 -5 -7 -2 -8 5 -3 13 8 54 -28 44 -39 -4
-3 1 -6 11 -6 9 0 14 -4 11 -10 -3 -6 0 -10 7 -10 12 0 54 -42 94 -95 9 -11
12 -13 8 -5 -4 8 18 -11 49 -43 32 -31 57 -63 57 -69 0 -6 3 -9 6 -5 9 9 86
-71 80 -82 -4 -5 -1 -13 5 -17 8 -4 9 -3 5 4 -12 20 3 13 34 -15 17 -14 30
-33 30 -41 0 -9 3 -13 6 -9 4 3 22 -9 40 -29 34 -35 44 -51 22 -38 -7 4 -8 3
-4 -4 4 -6 13 -9 21 -6 15 6 38 -29 27 -41 -4 -5 -1 -5 6 -1 14 9 56 -27 45
-38 -4 -3 1 -6 11 -6 9 0 14 -4 11 -10 -3 -5 1 -10 10 -10 9 0 19 -9 22 -20 3
-11 9 -17 14 -14 5 3 9 -2 9 -11 0 -9 3 -14 7 -12 5 2 26 -14 48 -36 22 -23
33 -36 24 -29 -12 9 -16 9 -16 -1 0 -7 9 -14 19 -14 21 -2 250 -227 241 -237
-4 -3 1 -6 11 -6 9 0 14 -4 11 -10 -3 -5 0 -10 8 -10 16 0 58 -46 50 -54 -4
-3 1 -6 11 -6 9 0 14 -4 11 -10 -3 -5 -1 -10 5 -10 16 0 141 -126 133 -133 -3
-4 1 -7 11 -7 9 0 15 -4 12 -9 -3 -5 3 -11 14 -14 11 -3 20 -13 20 -22 0 -9 4
-13 10 -10 5 3 10 -1 10 -10 0 -9 3 -14 8 -12 4 2 25 -14 47 -36 22 -23 33
-36 24 -29 -12 9 -16 9 -16 -1 0 -7 9 -14 19 -14 20 -2 198 -175 198 -193 0
-6 4 -9 8 -6 10 6 43 -30 35 -37 -2 -3 5 -8 16 -12 12 -3 19 -11 16 -16 -4 -5
0 -9 7 -9 16 0 49 -36 41 -44 -4 -3 -1 -6 5 -6 16 0 78 -60 74 -72 -1 -5 2 -7
7 -4 13 8 34 -21 25 -35 -4 -8 -3 -9 5 -5 7 5 22 -3 36 -18 20 -21 25 -23 35
-11 7 8 17 12 23 8 5 -3 7 -2 4 4 -8 13 37 56 47 46 4 -5 6 -3 4 2 -4 12 38
56 46 48 3 -4 6 1 6 9 0 9 8 22 17 29 14 12 16 12 8 0 -5 -10 -4 -12 3 -7 7 4
12 14 12 23 0 9 6 13 14 10 9 -4 13 -1 10 7 -6 16 31 50 46 41 6 -3 10 -3 9 2
-3 19 2 34 10 29 5 -3 11 4 14 15 3 12 10 18 17 14 6 -4 9 -1 8 7 -2 7 5 12
14 12 10 -1 16 2 13 6 -3 4 4 19 16 31 11 13 17 18 13 10 -5 -9 -3 -12 4 -7 7
4 12 13 12 20 0 18 47 59 59 52 6 -4 9 -1 6 7 -7 17 30 51 46 41 7 -4 10 -3 6
3 -4 6 12 30 34 54 23 24 38 38 35 32 -4 -7 -5 -13 -1 -13 3 0 10 12 15 26 7
18 15 24 26 20 8 -3 12 -2 9 3 -8 13 51 75 64 67 6 -4 9 -1 6 7 -7 17 30 51
45 42 6 -3 10 -3 9 2 -3 20 2 34 11 28 6 -3 10 -1 10 5 0 20 68 82 81 74 8 -5
9 -3 5 5 -10 16 23 53 41 47 7 -3 12 -2 12 2 -3 19 2 33 10 28 5 -3 11 4 14
15 3 12 10 18 17 14 6 -4 9 -1 8 7 -2 7 5 12 14 12 10 -1 16 2 13 6 -3 4 4 19
16 31 11 13 17 18 13 10 -5 -9 -3 -12 4 -7 7 4 12 13 12 20 0 20 47 59 61 51
8 -6 10 -4 5 4 -10 16 24 53 41 46 8 -2 12 -1 9 4 -3 5 13 28 35 52 23 24 38
38 35 32 -4 -7 -5 -13 -1 -13 3 0 10 12 15 26 7 18 15 24 26 20 8 -3 12 -2 9
3 -9 15 51 75 66 66 8 -6 10 -4 5 4 -10 16 23 53 41 47 7 -3 12 -2 12 2 -3 20
2 33 11 27 6 -3 10 -1 10 6 0 14 76 89 91 89 5 0 7 5 4 10 -6 9 8 14 28 11 5
-1 5 3 2 9 -8 14 23 50 42 50 8 0 11 5 8 10 -6 9 8 14 28 11 5 -1 5 3 2 10 -9
14 32 52 47 43 7 -4 8 -3 4 4 -9 14 40 66 54 57 6 -3 7 1 4 9 -4 11 0 16 11
16 9 0 13 5 10 10 -6 9 8 14 28 11 5 -1 5 3 2 10 -9 14 32 52 47 43 7 -4 8 -3
4 5 -9 13 51 74 65 65 5 -3 6 2 3 10 -4 11 2 19 20 26 14 5 26 12 26 15 0 4
-6 3 -12 -1 -7 -4 7 12 30 35 24 22 48 39 53 36 5 -4 6 1 3 9 -5 13 18 34 39
34 5 0 12 4 15 8 4 4 1 4 -5 0 -7 -4 -13 -2 -13 4 0 7 9 14 20 17 11 3 18 9
15 12 -2 4 14 24 35 44 23 21 35 39 29 43 -6 3 -8 12 -5 20 3 8 0 11 -10 7
-10 -4 -17 2 -21 16 -3 11 -13 21 -22 21 -14 0 -14 2 -1 10 12 8 11 10 -7 10
-12 0 -24 8 -27 18 -4 9 -24 30 -46 45 -25 17 -37 33 -34 42 5 11 11 12 24 5
20 -11 36 -30 25 -30 -4 0 -15 5 -26 10 -10 6 -19 8 -19 6 0 -3 9 -10 19 -16
21 -11 51 -4 51 12 0 5 -4 6 -10 3 -5 -3 -10 -2 -10 3 0 5 -11 14 -25 20 -14
6 -24 15 -23 19 4 12 -51 63 -67 63 -8 0 -27 16 -42 35 -18 23 -34 33 -45 30
-10 -4 -22 2 -31 15 -7 11 -17 17 -22 12 -4 -4 -3 2 2 12 8 15 7 26 -4 43 -14
22 -14 22 16 18 17 -2 29 0 26 5 -3 5 -13 6 -22 3 -11 -5 -14 -3 -8 6 6 10 3
11 -11 2 -11 -6 -26 -15 -34 -22 -13 -9 -12 -10 4 -5 14 5 17 2 12 -10 -3 -8
-6 -17 -6 -19 0 -2 -13 10 -30 27 -29 29 -41 68 -20 68 6 0 10 5 10 11 0 8 -4
8 -15 -1 -8 -6 -20 -8 -27 -4 -10 5 -11 4 0 -7 24 -25 12 -28 -14 -2 -20 20
-23 28 -13 37 9 8 10 8 5 -1 -4 -7 -2 -13 4 -13 7 0 10 6 7 13 -2 6 -13 11
-24 9 -13 -2 -33 10 -53 30 -27 27 -31 35 -21 50 8 14 9 23 1 36 -9 14 -10 13
-5 -8 l6 -25 -19 24 c-11 13 -24 21 -31 17 -17 -11 -60 26 -61 52 0 12 5 22
10 22 6 0 10 5 10 11 0 8 -4 8 -15 -1 -8 -6 -20 -8 -27 -4 -10 5 -11 4 0 -7
28 -31 9 -24 -23 8 -33 33 -47 73 -25 73 6 0 10 5 10 11 0 8 -4 8 -15 -1 -8
-6 -20 -8 -27 -4 -10 5 -11 4 0 -7 23 -25 12 -28 -13 -3 -14 14 -25 29 -25 35
0 6 -4 7 -10 4 -5 -3 -15 5 -21 19 -7 14 -16 23 -20 20 -5 -3 -6 2 -3 10 10
26 47 0 38 -26 -4 -14 -2 -18 5 -14 6 4 14 0 17 -8 3 -9 11 -16 17 -16 5 0 3
8 -6 18 -10 10 -17 26 -17 35 0 8 -9 19 -20 22 -11 3 -20 13 -20 20 0 22 -15
26 -36 9 -18 -14 -18 -15 4 -4 18 9 22 8 22 -4 0 -21 -19 -30 -35 -16 -10 8
-12 17 -6 29 10 17 -10 56 -22 44 -13 -12 -7 13 6 27 6 8 2 6 -10 -4 -22 -18
-33 -43 -14 -32 4 3 16 -1 26 -8 13 -9 15 -15 7 -20 -7 -4 -12 -2 -12 3 0 6
-4 10 -8 9 -12 -4 -82 64 -76 74 3 4 0 8 -6 8 -6 0 -8 5 -5 11 5 7 14 3 26
-10 11 -12 24 -21 29 -21 5 0 7 -8 3 -17 -4 -14 -2 -14 9 2 8 11 15 31 16 45
1 18 -1 21 -8 11 -4 -8 -6 -20 -3 -28 7 -19 0 -16 -32 11 -21 18 -33 22 -45
16 -13 -7 -23 -3 -40 15 -13 14 -20 25 -16 25 4 0 1 6 -6 14 -7 8 -17 11 -22
8 -5 -3 -1 9 9 26 10 17 23 28 28 25 6 -4 7 -1 2 7 -6 10 -11 9 -21 -4 -7 -10
-15 -13 -18 -8 -3 6 -14 8 -24 5 -12 -3 -31 7 -52 28 -27 28 -31 36 -21 51 8
14 9 23 1 36 -9 14 -10 13 -5 -8 l6 -25 -19 24 c-11 13 -24 21 -31 17 -17 -11
-60 26 -61 52 0 12 5 22 10 22 6 0 10 5 10 11 0 8 -4 8 -15 -1 -8 -6 -20 -8
-27 -4 -10 5 -11 4 0 -7 26 -28 10 -26 -19 3 -23 24 -27 33 -18 42 9 8 10 8 4
-3 -6 -10 -4 -12 5 -6 9 5 11 4 6 -3 -4 -7 -3 -12 3 -12 5 0 12 6 14 13 4 10
6 10 6 0 1 -7 6 -13 12 -13 8 0 8 5 -1 15 -7 8 -16 13 -20 10 -5 -3 -11 -1
-15 5 -4 7 -13 6 -27 -1 -11 -6 -18 -7 -15 -2 3 4 -1 14 -9 21 -8 7 -14 10
-14 6 0 -4 -11 3 -25 16 -18 17 -22 27 -15 40 6 12 2 24 -16 45 -27 32 -30 39
-11 32 8 -3 20 -1 28 3 10 7 7 9 -11 8 -14 -1 -34 -8 -45 -16 -16 -11 -16 -13
-2 -9 9 4 17 2 17 -3 0 -5 9 -18 21 -29 13 -12 17 -21 10 -26 -6 -3 -11 -1
-11 5 0 6 -4 9 -8 6 -10 -6 -78 64 -74 76 1 4 -3 8 -9 8 -5 0 -7 5 -3 12 5 8
11 6 20 -7 7 -10 11 -22 8 -26 -11 -19 14 -8 32 14 10 12 12 16 4 10 -14 -13
-39 -19 -27 -6 12 12 -27 32 -44 22 -12 -6 -21 -4 -29 6 -14 16 -5 35 16 35
12 0 13 -4 4 -22 -11 -22 -10 -22 4 -4 17 21 13 36 -9 36 -7 0 -17 9 -20 20
-3 11 -14 20 -22 20 -9 0 -25 7 -35 17 -10 9 -18 11 -18 6 0 -6 7 -14 16 -17
8 -3 12 -11 8 -17 -4 -7 0 -9 14 -5 26 9 52 -28 26 -38 -8 -3 -13 -2 -10 3 3
4 -6 13 -20 20 -14 6 -22 16 -19 21 3 6 2 10 -4 10 -6 0 -21 11 -35 25 -25 25
-22 36 3 13 11 -11 12 -10 7 0 -4 7 -2 19 4 27 9 11 9 15 1 15 -6 0 -11 -4
-11 -10 0 -5 -8 -10 -19 -10 -27 0 -102 78 -99 103 2 11 -4 22 -12 24 -11 3
-11 2 -3 -4 8 -6 9 -14 3 -23 -8 -13 -10 -12 -10 3 0 11 -5 15 -11 11 -8 -4
-8 -1 -1 12 11 20 -8 61 -21 47 -13 -12 -7 13 6 27 6 8 2 6 -10 -4 -22 -18
-33 -43 -14 -32 4 3 16 -1 26 -8 13 -9 15 -15 7 -20 -7 -4 -12 -2 -12 3 0 6
-4 10 -8 8 -10 -3 -69 51 -83 75 -6 11 -5 19 3 24 7 4 8 3 4 -4 -5 -8 -1 -10
11 -5 16 6 17 5 3 -12 -8 -10 -10 -16 -3 -12 18 11 42 -3 36 -21 -4 -12 -1
-11 9 3 8 11 15 31 16 45 1 18 -1 21 -8 11 -4 -8 -6 -20 -3 -28 4 -9 0 -11
-11 -7 -15 6 -20 18 -17 38 1 5 -5 6 -13 3 -18 -7 -31 9 -16 18 6 4 8 11 4 16
-3 5 -10 6 -16 3 -8 -5 -9 -1 -4 12 6 15 5 16 -5 7 -10 -10 -9 -16 2 -29 16
-20 16 -24 -2 -35 -22 -13 -40 10 -27 35 10 18 9 19 -4 9 -21 -18 -64 17 -45
36 9 10 9 12 -3 11 -29 -4 -39 0 -42 18 -3 16 -4 16 -11 -2z m-216 -211 c-1
-6 -7 -10 -13 -10 -7 -1 -12 -7 -10 -14 1 -7 -2 -10 -7 -7 -5 4 -12 -3 -16
-14 -4 -11 -11 -18 -16 -15 -11 7 40 77 53 73 5 -2 9 -8 9 -13z m-320 -320
c-1 -6 -7 -10 -13 -10 -7 -1 -12 -7 -10 -14 1 -7 -2 -10 -7 -7 -5 4 -12 -3
-16 -14 -4 -11 -11 -18 -16 -15 -11 7 40 77 53 73 5 -2 9 -8 9 -13z m-207
-209 c-3 -9 -10 -13 -16 -10 -5 3 -4 12 3 20 15 18 22 13 13 -10z m1626 -111
c0 -8 5 -15 11 -15 5 0 8 -4 4 -10 -3 -5 -14 -2 -25 7 -10 9 -17 20 -14 25 9
13 24 9 24 -7z m121 -128 c-13 -13 -26 -3 -16 12 3 6 11 8 17 5 6 -4 6 -10 -1
-17z m-2180 -192 c-1 -6 -7 -10 -13 -10 -7 -1 -12 -7 -10 -14 1 -7 -2 -10 -7
-7 -5 4 -12 -3 -16 -14 -4 -11 -11 -18 -16 -15 -11 7 40 77 53 73 5 -2 9 -8 9
-13z m-207 -209 c-3 -9 -10 -13 -16 -10 -5 3 -4 12 3 20 15 18 22 13 13 -10z
m2906 -111 c0 -8 5 -15 11 -15 5 0 8 -4 4 -10 -3 -5 -14 -2 -25 7 -10 9 -17
20 -14 25 9 13 24 9 24 -7z m-3226 -209 c-3 -9 -10 -13 -16 -10 -5 3 -4 12 3
20 15 18 22 13 13 -10z m3471 -25 c3 -5 1 -12 -5 -16 -5 -3 -10 1 -10 9 0 18
6 21 15 7z m75 -80 c0 -13 58 -70 65 -63 3 3 14 -4 25 -16 12 -12 25 -22 30
-22 12 0 5 -33 -8 -38 -11 -3 -17 11 -13 31 1 5 -4 7 -10 5 -13 -4 -69 48 -69
64 0 6 -3 9 -6 5 -8 -8 -44 25 -38 35 7 11 24 10 24 -1z"/>
<path d="M2381 4676 c-15 -18 5 -34 22 -17 9 9 7 10 -8 5 -18 -7 -18 -6 -6 9
7 9 11 17 8 17 -2 0 -10 -6 -16 -14z"/>
<path d="M2546 4682 c-3 -5 1 -9 9 -9 8 0 15 4 15 9 0 4 -4 8 -9 8 -6 0 -12
-4 -15 -8z"/>
<path d="M2517 4655 c-7 -16 8 -29 23 -20 6 3 10 12 9 18 0 9 -2 9 -6 0 -2 -7
-9 -13 -14 -13 -4 0 -6 7 -3 15 4 8 4 15 1 15 -3 0 -7 -7 -10 -15z"/>
<path d="M2297 4631 c-4 -17 -3 -21 5 -13 5 5 8 16 6 23 -3 8 -7 3 -11 -10z"/>
<path d="M2215 4600 c-3 -5 -1 -10 4 -10 6 0 11 5 11 10 0 6 -2 10 -4 10 -3 0
-8 -4 -11 -10z"/>
<path d="M2298 4580 c-13 -31 -23 -37 -33 -20 -7 11 -55 9 -55 -2 0 -5 11 -6
25 -2 20 5 24 3 19 -10 -3 -9 -10 -13 -15 -10 -5 3 -9 1 -9 -5 0 -5 5 -13 10
-16 6 -3 10 -1 10 5 0 6 4 8 10 5 6 -3 7 1 4 10 -4 11 -2 14 9 10 9 -4 22 6
35 29 12 20 17 36 13 36 -5 0 -15 -13 -23 -30z"/>
<path d="M2555 4601 c-3 -5 -2 -12 3 -15 5 -3 9 1 9 9 0 17 -3 19 -12 6z"/>
<path d="M2275 4589 c-4 -6 -5 -12 -2 -15 2 -3 7 2 10 11 7 17 1 20 -8 4z"/>
<path d="M2127 4539 c7 -7 15 -10 18 -7 3 3 -2 9 -12 12 -14 6 -15 5 -6 -5z"/>
<path d="M2177 4514 c3 -10 0 -12 -10 -8 -8 3 -17 1 -21 -4 -3 -5 5 -8 16 -7
12 1 24 7 26 13 2 7 9 9 15 5 7 -3 8 -2 4 2 -13 15 -36 14 -30 -1z"/>
<path d="M2700 4520 c0 -4 13 -7 29 -6 16 0 27 3 25 6 -8 7 -54 7 -54 0z"/>
<path d="M2770 4500 c0 -5 5 -10 11 -10 5 0 7 5 4 10 -3 6 -8 10 -11 10 -2 0
-4 -4 -4 -10z"/>
<path d="M2734 4492 c3 -5 0 -13 -6 -15 -9 -4 -10 -6 -1 -6 17 -1 25 16 12 25
-7 4 -9 3 -5 -4z"/>
<path d="M2155 4470 c-3 -5 -1 -10 4 -10 6 0 11 5 11 10 0 6 -2 10 -4 10 -3 0
-8 -4 -11 -10z"/>
<path d="M2099 4468 c-6 -19 -4 -50 4 -55 6 -3 7 -1 3 5 -4 7 -3 12 3 12 6 0
15 10 21 23 11 21 10 21 -4 3 -14 -18 -21 -15 -17 7 1 6 -8 11 -10 5z"/>
<path d="M2753 4456 c3 -7 0 -19 -6 -25 -8 -8 -6 -17 10 -32 26 -26 48 -17 32
12 -8 16 -13 18 -25 8 -14 -11 -20 1 -7 15 11 11 12 36 1 36 -6 0 -8 -6 -5
-14z m32 -64 c-8 -8 -25 10 -19 20 4 6 9 5 15 -3 4 -7 6 -15 4 -17z"/>
<path d="M2796 4427 c3 -10 9 -15 12 -12 3 3 0 11 -7 18 -10 9 -11 8 -5 -6z"/>
<path d="M2846 4418 c3 -5 10 -6 15 -3 13 9 11 12 -6 12 -8 0 -12 -4 -9 -9z"/>
<path d="M2076 4407 c3 -10 9 -15 12 -12 3 3 0 11 -7 18 -10 9 -11 8 -5 -6z"/>
<path d="M2034 4392 c13 -15 23 -19 30 -12 7 7 6 14 -3 23 -10 10 -11 8 -5 -8
l7 -20 -24 20 -24 20 19 -23z"/>
<path d="M2803 4380 c-9 -14 -9 -21 0 -29 15 -12 46 3 33 16 -5 4 -11 2 -13
-5 -3 -6 -9 -9 -14 -6 -6 3 -5 11 2 20 6 8 10 16 8 19 -3 2 -10 -4 -16 -15z"/>
<path d="M2010 4340 c-9 -6 -10 -10 -3 -10 6 0 15 5 18 10 8 12 4 12 -15 0z"/>
<path d="M1895 4329 c-4 -6 -5 -12 -2 -15 2 -3 7 2 10 11 7 17 1 20 -8 4z"/>
<path d="M1935 4320 c-3 -5 -1 -10 4 -10 6 0 11 5 11 10 0 6 -2 10 -4 10 -3 0
-8 -4 -11 -10z"/>
<path d="M2870 4323 c0 -8 44 -42 55 -43 6 0 3 5 -5 10 -8 5 -15 15 -15 21 0
7 -8 13 -17 15 -10 1 -18 0 -18 -3z"/>
<path d="M2020 4300 c0 -5 7 -7 15 -4 8 4 15 8 15 10 0 2 -7 4 -15 4 -8 0 -15
-4 -15 -10z"/>
<path d="M2936 4298 c3 -5 10 -6 15 -3 13 9 11 12 -6 12 -8 0 -12 -4 -9 -9z"/>
<path d="M2970 4300 c0 -5 5 -10 11 -10 5 0 7 5 4 10 -3 6 -8 10 -11 10 -2 0
-4 -4 -4 -10z"/>
<path d="M1895 4280 c-3 -5 -1 -10 4 -10 6 0 11 5 11 10 0 6 -2 10 -4 10 -3 0
-8 -4 -11 -10z"/>
<path d="M1950 4280 c0 -5 5 -10 10 -10 6 0 10 5 10 10 0 6 -4 10 -10 10 -5 0
-10 -4 -10 -10z"/>
<path d="M2985 4260 c-3 -6 1 -7 9 -4 18 7 21 14 7 14 -6 0 -13 -4 -16 -10z"/>
<path d="M3000 4240 c-12 -7 -10 -9 7 -7 12 0 19 5 17 9 -6 10 -6 10 -24 -2z"/>
<path d="M1910 4210 c0 -6 5 -10 11 -10 5 0 7 -5 3 -12 -4 -7 -3 -8 4 -4 16
10 15 23 -3 30 -8 3 -15 1 -15 -4z"/>
<path d="M3011 4211 c-8 -5 -9 -11 -3 -15 5 -3 12 1 16 9 6 17 6 18 -13 6z"/>
<path d="M1833 4187 l-18 -22 24 20 24 20 -6 -20 c-7 -18 -6 -19 6 -3 8 10 16
17 18 15 2 -1 3 0 1 2 -8 13 -33 7 -49 -12z"/>
<path d="M3056 4198 c3 -5 10 -6 15 -3 13 9 11 12 -6 12 -8 0 -12 -4 -9 -9z"/>
<path d="M3030 4190 c0 -5 5 -10 11 -10 5 0 7 5 4 10 -3 6 -8 10 -11 10 -2 0
-4 -4 -4 -10z"/>
<path d="M1835 4150 c-3 -5 -1 -10 4 -10 6 0 11 5 11 10 0 6 -2 10 -4 10 -3 0
-8 -4 -11 -10z"/>
<path d="M1804 4135 c-5 -11 -10 -12 -18 -5 -9 7 -12 4 -11 -10 1 -11 5 -23
10 -27 4 -5 5 -2 1 5 -4 6 -3 12 3 12 6 0 15 9 21 20 6 11 8 20 5 20 -3 0 -8
-7 -11 -15z"/>
<path d="M3100 4120 c0 -5 9 -8 20 -7 21 1 18 10 -5 13 -8 1 -15 -2 -15 -6z"/>
<path d="M3040 4106 c0 -2 8 -10 18 -17 15 -13 16 -12 3 4 -13 16 -21 21 -21
13z"/>
<path d="M1756 4087 c3 -10 9 -15 12 -12 3 3 0 11 -7 18 -10 9 -11 8 -5 -6z"/>
<path d="M1714 4072 c13 -15 23 -19 30 -12 7 7 6 14 -3 23 -10 10 -11 8 -5 -8
l7 -20 -24 20 -24 20 19 -23z"/>
<path d="M3116 4057 c-16 -12 -16 -14 5 -32 12 -11 19 -14 14 -6 -6 11 -4 13
8 8 9 -3 19 -1 23 5 4 7 3 8 -4 4 -11 -6 -16 6 -13 27 2 11 -13 8 -33 -6z m24
-11 c0 -11 -19 -15 -25 -6 -3 5 1 10 9 10 9 0 16 -2 16 -4z"/>
<path d="M1700 4035 c0 -8 -6 -12 -14 -9 -8 3 -16 1 -20 -4 -3 -5 5 -8 17 -7
18 1 40 35 23 35 -3 0 -6 -7 -6 -15z"/>
<path d="M3171 4016 c-8 -9 -8 -16 -2 -20 5 -4 12 -2 16 4 3 5 3 10 -2 10 -4
0 -1 5 7 10 8 5 10 10 4 10 -6 0 -17 -6 -23 -14z"/>
<path d="M3250 4020 c0 -5 5 -10 11 -10 5 0 7 5 4 10 -3 6 -8 10 -11 10 -2 0
-4 -4 -4 -10z"/>
<path d="M3206 3998 c3 -4 9 -8 15 -8 5 0 9 4 9 8 0 5 -7 9 -15 9 -8 0 -12 -4
-9 -9z"/>
<path d="M1675 3990 c-3 -5 -1 -10 4 -10 6 0 11 5 11 10 0 6 -2 10 -4 10 -3 0
-8 -4 -11 -10z"/>
<path d="M1619 3988 c-6 -19 -4 -50 4 -55 6 -3 7 -1 3 5 -4 7 -3 12 3 12 6 0
15 10 21 23 11 21 10 21 -4 3 -14 -18 -21 -15 -17 7 1 6 -8 11 -10 5z"/>
<path d="M1596 3927 c3 -10 9 -15 12 -12 3 3 0 11 -7 18 -10 9 -11 8 -5 -6z"/>
<path d="M1554 3912 c13 -15 23 -19 30 -12 7 7 6 14 -3 23 -10 10 -11 8 -5 -8
l7 -20 -24 20 -24 20 19 -23z"/>
<path d="M3267 3906 c-8 -19 28 -52 39 -35 4 7 3 10 -2 7 -5 -3 -15 0 -22 8
-7 8 -8 14 -2 14 5 0 10 5 10 10 0 15 -17 12 -23 -4z"/>
<path d="M3316 3885 c23 -17 34 -19 34 -4 0 5 -4 8 -9 4 -5 -3 -12 -1 -16 5
-3 5 -11 10 -18 10 -6 0 -2 -7 9 -15z"/>
<path d="M1530 3860 c-9 -6 -10 -10 -3 -10 6 0 15 5 18 10 8 12 4 12 -15 0z"/>
<path d="M3415 3861 c-3 -5 -2 -12 3 -15 5 -3 9 1 9 9 0 17 -3 19 -12 6z"/>
<path d="M1455 3840 c-3 -5 -1 -10 4 -10 6 0 11 5 11 10 0 6 -2 10 -4 10 -3 0
-8 -4 -11 -10z"/>
<path d="M1540 3820 c0 -5 7 -7 15 -4 8 4 15 8 15 10 0 2 -7 4 -15 4 -8 0 -15
-4 -15 -10z"/>
<path d="M3369 3803 c-13 -17 -13 -17 6 -3 11 8 22 16 24 17 2 2 0 3 -6 3 -6
0 -17 -8 -24 -17z"/>
<path d="M1470 3800 c0 -5 5 -10 10 -10 6 0 10 5 10 10 0 6 -4 10 -10 10 -5 0
-10 -4 -10 -10z"/>
<path d="M3410 3806 c0 -2 7 -7 16 -10 8 -3 12 -2 9 4 -6 10 -25 14 -25 6z"/>
<path d="M3384 3789 c-10 -17 33 -56 47 -42 6 6 18 9 25 6 8 -3 14 -1 14 5 0
11 -25 10 -36 -1 -14 -13 -26 -7 -15 7 10 12 8 17 -8 25 -14 8 -22 8 -27 0z
m30 -20 c-6 -11 -24 -2 -24 11 0 5 7 7 15 4 8 -4 12 -10 9 -15z"/>
<path d="M3490 3780 c0 -5 5 -10 11 -10 5 0 7 5 4 10 -3 6 -8 10 -11 10 -2 0
-4 -4 -4 -10z"/>
<path d="M1379 3748 c0 -2 -2 -13 -3 -25 -2 -18 0 -20 16 -12 10 5 18 14 18
20 0 6 5 7 12 3 7 -5 8 -3 3 6 -6 10 -11 9 -22 -5 -12 -17 -18 -14 -14 8 1 6
-8 11 -10 5z"/>
<path d="M1444 3721 c3 -5 -2 -15 -11 -22 -15 -12 -16 -12 -10 3 5 15 4 16
-13 5 -18 -11 -19 -12 -2 -18 9 -4 25 0 35 9 19 17 22 32 6 32 -5 0 -8 -4 -5
-9z"/>
<path d="M3536 3722 c-3 -5 1 -9 9 -9 8 0 12 4 9 9 -3 4 -7 8 -9 8 -2 0 -6 -4
-9 -8z"/>
<path d="M3500 3711 c0 -7 -4 -10 -9 -6 -5 3 -12 1 -15 -4 -4 -5 -2 -12 3 -15
11 -7 36 22 27 31 -3 3 -6 1 -6 -6z"/>
<path d="M1320 3700 c-9 -6 -10 -10 -3 -10 6 0 15 5 18 10 8 12 4 12 -15 0z"/>
<path d="M1255 3689 c-4 -6 -5 -12 -2 -15 2 -3 7 2 10 11 7 17 1 20 -8 4z"/>
<path d="M3507 3684 c-3 -3 -3 -13 0 -22 5 -11 3 -13 -8 -7 -8 5 -5 -2 6 -14
18 -21 20 -21 32 -5 14 20 17 35 6 33 -20 -3 -34 2 -28 11 7 11 2 14 -8 4z
m23 -40 c0 -8 -5 -12 -10 -9 -6 4 -8 11 -5 16 9 14 15 11 15 -7z"/>
<path d="M1311 3653 c7 -12 15 -20 18 -17 3 2 -3 12 -13 22 -17 16 -18 16 -5
-5z"/>
<path d="M3593 3640 c-1 -11 2 -20 7 -20 4 0 7 7 6 15 -3 23 -12 26 -13 5z"/>
<path d="M1255 3640 c-3 -5 -1 -10 4 -10 6 0 11 5 11 10 0 6 -2 10 -4 10 -3 0
-8 -4 -11 -10z"/>
<path d="M1296 3623 c-6 -14 -5 -15 5 -6 7 7 10 15 7 18 -3 3 -9 -2 -12 -12z"/>
<path d="M3675 3591 c-3 -5 -2 -12 3 -15 5 -3 9 1 9 9 0 17 -3 19 -12 6z"/>
<path d="M3560 3586 c0 -2 8 -10 18 -17 15 -13 16 -12 3 4 -13 16 -21 21 -21
13z"/>
<path d="M1193 3547 l-18 -22 24 20 24 20 -6 -20 c-7 -18 -6 -19 6 -3 8 10 16
17 18 15 2 -1 3 0 1 2 -8 13 -33 7 -49 -12z"/>
<path d="M3660 3560 c0 -5 5 -10 11 -10 5 0 7 5 4 10 -3 6 -8 10 -11 10 -2 0
-4 -4 -4 -10z"/>
<path d="M3681 3541 c-8 -5 -9 -11 -3 -15 5 -3 12 1 16 9 6 17 6 18 -13 6z"/>
<path d="M3713 3529 c-2 -23 3 -25 10 -4 4 8 3 16 -1 19 -4 3 -9 -4 -9 -15z"/>
<path d="M3736 3513 c-6 -14 -5 -15 5 -6 7 7 10 15 7 18 -3 3 -9 -2 -12 -12z"/>
<path d="M1195 3510 c-3 -5 -1 -10 4 -10 6 0 11 5 11 10 0 6 -2 10 -4 10 -3 0
-8 -4 -11 -10z"/>
<path d="M1164 3495 c-5 -11 -10 -12 -18 -5 -9 7 -12 4 -11 -10 1 -11 5 -23
10 -27 4 -5 5 -2 1 5 -4 6 -3 12 3 12 6 0 15 9 21 20 6 11 8 20 5 20 -3 0 -8
-7 -11 -15z"/>
<path d="M3770 3500 c0 -5 5 -10 11 -10 5 0 7 5 4 10 -3 6 -8 10 -11 10 -2 0
-4 -4 -4 -10z"/>
<path d="M3775 3471 c-3 -5 -2 -12 3 -15 5 -3 9 1 9 9 0 17 -3 19 -12 6z"/>
<path d="M1116 3447 c3 -10 9 -15 12 -12 3 3 0 11 -7 18 -10 9 -11 8 -5 -6z"/>
<path d="M1074 3432 c13 -15 23 -19 30 -12 7 7 6 14 -3 23 -10 10 -11 8 -5 -8
l7 -20 -24 20 -24 20 19 -23z"/>
<path d="M3760 3445 c1 -11 35 -55 43 -55 3 0 4 8 3 18 -2 9 -8 17 -15 17 -6
0 -16 7 -21 15 -5 8 -10 11 -10 5z"/>
<path d="M1060 3395 c0 -8 -6 -12 -14 -9 -8 3 -16 1 -20 -4 -3 -5 5 -8 17 -7
18 1 40 35 23 35 -3 0 -6 -7 -6 -15z"/>
<path d="M3890 3380 c0 -5 5 -10 11 -10 5 0 7 5 4 10 -3 6 -8 10 -11 10 -2 0
-4 -4 -4 -10z"/>
<path d="M3830 3349 c-13 -23 17 -51 31 -28 6 10 9 10 9 2 0 -7 5 -13 11 -13
8 0 8 4 -1 15 -6 8 -17 13 -22 12 -6 -1 -13 4 -15 11 -3 8 1 10 11 6 9 -3 16
-2 16 3 0 16 -31 10 -40 -8z"/>
<path d="M1035 3350 c-3 -5 -1 -10 4 -10 6 0 11 5 11 10 0 6 -2 10 -4 10 -3 0
-8 -4 -11 -10z"/>
<path d="M979 3348 c-6 -19 -4 -50 4 -55 6 -3 7 -1 3 5 -4 7 -3 12 3 12 6 0
15 10 21 23 11 21 10 21 -4 3 -14 -18 -21 -15 -17 7 1 6 -8 11 -10 5z"/>
<path d="M956 3287 c3 -10 9 -15 12 -12 3 3 0 11 -7 18 -10 9 -11 8 -5 -6z"/>
<path d="M914 3272 c13 -15 23 -19 30 -12 7 7 6 14 -3 23 -10 10 -11 8 -5 -8
l7 -20 -24 20 -24 20 19 -23z"/>
<path d="M3907 3266 c-8 -19 28 -52 39 -35 4 7 3 10 -2 7 -5 -3 -15 0 -22 8
-7 8 -8 14 -2 14 5 0 10 5 10 10 0 15 -17 12 -23 -4z"/>
<path d="M3956 3245 c23 -17 34 -19 34 -4 0 5 -4 8 -9 4 -5 -3 -12 -1 -16 5
-3 5 -11 10 -18 10 -6 0 -2 -7 9 -15z"/>
<path d="M890 3220 c-9 -6 -10 -10 -3 -10 6 0 15 5 18 10 8 12 4 12 -15 0z"/>
<path d="M4055 3221 c-3 -5 -2 -12 3 -15 5 -3 9 1 9 9 0 17 -3 19 -12 6z"/>
<path d="M815 3200 c-3 -5 -1 -10 4 -10 6 0 11 5 11 10 0 6 -2 10 -4 10 -3 0
-8 -4 -11 -10z"/>
<path d="M900 3180 c0 -5 7 -7 15 -4 8 4 15 8 15 10 0 2 -7 4 -15 4 -8 0 -15
-4 -15 -10z"/>
<path d="M4009 3163 c-13 -17 -13 -17 6 -3 11 8 22 16 24 17 2 2 0 3 -6 3 -6
0 -17 -8 -24 -17z"/>
<path d="M830 3160 c0 -5 5 -10 10 -10 6 0 10 5 10 10 0 6 -4 10 -10 10 -5 0
-10 -4 -10 -10z"/>
<path d="M4050 3166 c0 -2 7 -7 16 -10 8 -3 12 -2 9 4 -6 10 -25 14 -25 6z"/>
<path d="M4024 3149 c-10 -17 33 -56 47 -42 6 6 18 9 25 6 8 -3 14 -1 14 5 0
11 -25 10 -36 -1 -14 -13 -26 -7 -15 7 10 12 8 17 -8 25 -14 8 -22 8 -27 0z
m30 -20 c-6 -11 -24 -2 -24 11 0 5 7 7 15 4 8 -4 12 -10 9 -15z"/>
<path d="M4130 3140 c0 -5 5 -10 11 -10 5 0 7 5 4 10 -3 6 -8 10 -11 10 -2 0
-4 -4 -4 -10z"/>
<path d="M739 3103 c-1 -5 -1 -16 0 -25 2 -12 -3 -16 -12 -12 -8 3 -17 1 -21
-4 -3 -5 5 -8 17 -7 16 1 22 8 23 28 1 24 -4 38 -7 20z"/>
<path d="M763 3095 c-3 -9 -3 -19 1 -22 3 -4 6 1 6 11 0 10 5 14 12 10 7 -4 8
-3 4 4 -10 16 -15 15 -23 -3z"/>
<path d="M4117 3103 c-10 -10 -8 -33 3 -33 5 0 6 7 3 17 -5 12 -3 14 7 8 9 -5
11 -4 6 3 -8 14 -10 14 -19 5z"/>
<path d="M835 3090 c-3 -5 -12 -7 -20 -3 -8 3 -15 1 -15 -5 0 -13 27 -9 42 6
7 7 9 12 6 12 -4 0 -9 -4 -13 -10z"/>
<path d="M4194 3068 l-19 -23 23 19 c21 18 27 26 19 26 -2 0 -12 -10 -23 -22z"/>
<path d="M4200 3040 c-12 -7 -10 -9 7 -7 12 0 19 5 17 9 -6 10 -6 10 -24 -2z"/>
<path d="M715 3030 c-3 -5 -1 -10 4 -10 6 0 11 5 11 10 0 6 -2 10 -4 10 -3 0
-8 -4 -11 -10z"/>
<path d="M4147 3026 c-9 -22 18 -40 32 -22 10 12 8 17 -7 25 -15 8 -21 7 -25
-3z m33 -10 c0 -11 -19 -15 -25 -6 -3 5 1 10 9 10 9 0 16 -2 16 -4z"/>
<path d="M659 3028 c-6 -19 -4 -50 4 -55 6 -3 7 -1 3 5 -4 7 -3 12 3 12 6 0
15 10 21 23 11 21 10 21 -4 3 -14 -18 -21 -15 -17 7 1 6 -8 11 -10 5z"/>
<path d="M636 2967 c3 -10 9 -15 12 -12 3 3 0 11 -7 18 -10 9 -11 8 -5 -6z"/>
<path d="M594 2952 c13 -15 23 -19 30 -12 7 7 6 14 -3 23 -10 10 -11 8 -5 -8
l7 -20 -24 20 -24 20 19 -23z"/>
<path d="M4313 2947 c0 -7 9 -14 20 -14 11 -1 18 -1 16 0 -2 2 -11 8 -20 15
-12 9 -16 9 -16 -1z"/>
<path d="M4240 2940 c-13 -8 -12 -10 3 -10 9 0 17 -5 17 -11 0 -5 -5 -7 -12
-3 -7 4 -8 3 -4 -5 10 -16 25 -4 23 19 -1 22 -5 24 -27 10z"/>
<path d="M570 2900 c-9 -6 -10 -10 -3 -10 6 0 15 5 18 10 8 12 4 12 -15 0z"/>
<path d="M4315 2899 c-8 -12 32 -59 49 -59 6 0 4 5 -4 10 -8 5 -15 15 -15 22
-1 7 -7 12 -14 10 -8 -2 -11 3 -8 13 7 17 1 20 -8 4z"/>
<path d="M495 2880 c-3 -5 -1 -10 4 -10 6 0 11 5 11 10 0 6 -2 10 -4 10 -3 0
-8 -4 -11 -10z"/>
<path d="M580 2860 c0 -5 7 -7 15 -4 8 4 15 8 15 10 0 2 -7 4 -15 4 -8 0 -15
-4 -15 -10z"/>
<path d="M4376 2858 c3 -5 10 -6 15 -3 13 9 11 12 -6 12 -8 0 -12 -4 -9 -9z"/>
<path d="M4410 2860 c0 -5 5 -10 11 -10 5 0 7 5 4 10 -3 6 -8 10 -11 10 -2 0
-4 -4 -4 -10z"/>
<path d="M510 2840 c0 -5 5 -10 10 -10 6 0 10 5 10 10 0 6 -4 10 -10 10 -5 0
-10 -4 -10 -10z"/>
<path d="M4425 2820 c-3 -6 1 -7 9 -4 18 7 21 14 7 14 -6 0 -13 -4 -16 -10z"/>
<path d="M4440 2800 c-12 -7 -10 -9 7 -7 12 0 19 5 17 9 -6 10 -6 10 -24 -2z"/>
<path d="M445 2780 c-3 -5 -4 -14 -1 -19 4 -5 3 -11 -1 -14 -5 -2 -2 -2 5 0 8
1 12 -3 9 -9 -2 -7 -13 -12 -23 -10 -14 2 -16 1 -6 -6 9 -6 23 -5 37 2 22 10
22 11 4 24 -20 14 -27 38 -7 26 7 -4 8 -3 4 4 -9 15 -13 15 -21 2z"/>
<path d="M4452 2771 c-11 -7 -11 -9 0 -14 9 -3 15 1 15 9 0 8 -1 14 -1 14 -1
0 -7 -4 -14 -9z"/>
<path d="M480 2759 c0 -5 5 -7 10 -4 6 3 10 8 10 11 0 2 -4 4 -10 4 -5 0 -10
-5 -10 -11z"/>
<path d="M4499 2753 c-13 -16 -12 -17 4 -4 9 7 17 15 17 17 0 8 -8 3 -21 -13z"/>
<path d="M4526 2722 c-3 -5 1 -9 9 -9 8 0 12 4 9 9 -3 4 -7 8 -9 8 -2 0 -6 -4
-9 -8z"/>
<path d="M4495 2700 c-8 -13 3 -30 18 -29 9 0 9 2 0 6 -7 2 -13 9 -13 14 0 6
5 7 12 3 7 -4 8 -3 4 4 -9 15 -13 15 -21 2z"/>
<path d="M335 2650 c-4 -6 -10 -8 -14 -6 -4 3 -8 -1 -8 -9 0 -13 4 -12 19 2
18 16 22 23 14 23 -3 0 -8 -5 -11 -10z"/>
<path d="M4547 2639 c7 -7 15 -10 18 -7 3 3 -2 9 -12 12 -14 6 -15 5 -6 -5z"/>
<path d="M346 2623 c-6 -14 -5 -15 5 -6 7 7 10 15 7 18 -3 3 -9 -2 -12 -12z"/>
<path d="M265 2620 c-3 -6 1 -7 9 -4 18 7 21 14 7 14 -6 0 -13 -4 -16 -10z"/>
<path d="M315 2600 c-3 -5 -1 -10 4 -10 6 0 11 5 11 10 0 6 -2 10 -4 10 -3 0
-8 -4 -11 -10z"/>
<path d="M4579 2508 c-5 -18 -6 -38 -1 -34 7 8 12 36 6 36 -2 0 -4 -1 -5 -2z"/>
<path d="M393 2395 c0 -8 4 -12 9 -9 5 3 6 10 3 15 -9 13 -12 11 -12 -6z"/>
<path d="M4479 2333 c-13 -16 -12 -17 4 -4 9 7 17 15 17 17 0 8 -8 3 -21 -13z"/>
<path d="M4395 2300 c3 -5 8 -10 11 -10 2 0 4 5 4 10 0 6 -5 10 -11 10 -5 0
-7 -4 -4 -10z"/>
<path d="M750 2046 c0 -2 7 -7 16 -10 8 -3 12 -2 9 4 -6 10 -25 14 -25 6z"/>
<path d="M950 1876 c0 -2 8 -10 18 -17 15 -13 16 -12 3 4 -13 16 -21 21 -21
13z"/>
<path d="M3930 1839 c0 -5 5 -7 10 -4 6 3 10 8 10 11 0 2 -4 4 -10 4 -5 0 -10
-5 -10 -11z"/>
<path d="M1013 1791 c0 -11 5 -18 9 -15 4 3 5 11 1 19 -7 21 -12 19 -10 -4z"/>
<path d="M3870 1779 c0 -5 5 -7 10 -4 6 3 10 8 10 11 0 2 -4 4 -10 4 -5 0 -10
-5 -10 -11z"/>
<path d="M3920 1780 c-9 -6 -10 -10 -3 -10 6 0 15 5 18 10 8 12 4 12 -15 0z"/>
<path d="M3794 1714 c1 -8 4 -15 7 -16 2 -2 3 -1 2 1 -2 2 2 9 7 16 7 8 5 12
-4 12 -8 0 -13 -6 -12 -13z"/>
<path d="M3770 1661 c0 -6 4 -13 10 -16 6 -3 7 1 4 9 -7 18 -14 21 -14 7z"/>
<path d="M3730 1626 c0 -2 7 -7 16 -10 8 -3 12 -2 9 4 -6 10 -25 14 -25 6z"/>
<path d="M3686 1602 c-3 -5 1 -9 9 -9 8 0 12 4 9 9 -3 4 -7 8 -9 8 -2 0 -6 -4
-9 -8z"/>
<path d="M3554 1474 c1 -8 4 -15 7 -16 2 -2 3 -1 2 1 -2 2 2 9 7 16 7 8 5 12
-4 12 -8 0 -13 -6 -12 -13z"/>
<path d="M1389 1437 c6 -8 7 -18 3 -22 -4 -5 -1 -5 6 -1 10 6 10 11 1 22 -6 8
-14 14 -16 14 -3 0 0 -6 6 -13z"/>
<path d="M3499 1433 c-13 -16 -12 -17 4 -4 16 13 21 21 13 21 -2 0 -10 -8 -17
-17z"/>
<path d="M3530 1421 c0 -6 4 -13 10 -16 6 -3 7 1 4 9 -7 18 -14 21 -14 7z"/>
<path d="M3490 1400 c0 -5 5 -10 11 -10 5 0 7 5 4 10 -3 6 -8 10 -11 10 -2 0
-4 -4 -4 -10z"/>
<path d="M1469 1357 c6 -8 7 -18 3 -22 -4 -5 -1 -5 6 -1 10 6 10 11 1 22 -6 8
-14 14 -16 14 -3 0 0 -6 6 -13z"/>
<path d="M3456 1338 c3 -5 10 -6 15 -3 13 9 11 12 -6 12 -8 0 -12 -4 -9 -9z"/>
<path d="M3390 1299 c0 -5 5 -7 10 -4 6 3 10 8 10 11 0 2 -4 4 -10 4 -5 0 -10
-5 -10 -11z"/>
<path d="M3314 1234 c1 -8 4 -15 7 -16 2 -2 3 -1 2 1 -2 2 2 9 7 16 7 8 5 12
-4 12 -8 0 -13 -6 -12 -13z"/>
<path d="M3290 1181 c0 -6 4 -13 10 -16 6 -3 7 1 4 9 -7 18 -14 21 -14 7z"/>
<path d="M3230 1139 c0 -5 5 -7 10 -4 6 3 10 8 10 11 0 2 -4 4 -10 4 -5 0 -10
-5 -10 -11z"/>
<path d="M1694 1118 c-4 -7 -4 -10 1 -6 4 4 15 2 24 -5 14 -11 14 -10 2 6 -16
20 -18 21 -27 5z"/>
<path d="M3154 1074 c1 -8 4 -15 7 -16 2 -2 3 -1 2 1 -2 2 2 9 7 16 7 8 5 12
-4 12 -8 0 -13 -6 -12 -13z"/>
<path d="M3130 1021 c0 -6 4 -13 10 -16 6 -3 7 1 4 9 -7 18 -14 21 -14 7z"/>
<path d="M1753 995 c0 -8 4 -12 9 -9 5 3 6 10 3 15 -9 13 -12 11 -12 -6z"/>
<path d="M3090 986 c0 -2 7 -7 16 -10 8 -3 12 -2 9 4 -6 10 -25 14 -25 6z"/>
<path d="M3046 962 c-3 -5 1 -9 9 -9 8 0 12 4 9 9 -3 4 -7 8 -9 8 -2 0 -6 -4
-9 -8z"/>
<path d="M2914 834 c1 -8 4 -15 7 -16 2 -2 3 -1 2 1 -2 2 2 9 7 16 7 8 5 12
-4 12 -8 0 -13 -6 -12 -13z"/>
<path d="M2029 797 c6 -8 7 -18 3 -22 -4 -5 -1 -5 6 -1 10 6 10 11 1 22 -6 8
-14 14 -16 14 -3 0 0 -6 6 -13z"/>
<path d="M2859 793 c-13 -16 -12 -17 4 -4 16 13 21 21 13 21 -2 0 -10 -8 -17
-17z"/>
<path d="M2890 781 c0 -6 4 -13 10 -16 6 -3 7 1 4 9 -7 18 -14 21 -14 7z"/>
<path d="M2850 760 c0 -5 5 -10 11 -10 5 0 7 5 4 10 -3 6 -8 10 -11 10 -2 0
-4 -4 -4 -10z"/>
<path d="M2109 717 c6 -8 7 -18 3 -22 -4 -5 -1 -5 6 -1 10 6 10 11 1 22 -6 8
-14 14 -16 14 -3 0 0 -6 6 -13z"/>
<path d="M2750 659 c0 -5 5 -7 10 -4 6 3 10 8 10 11 0 2 -4 4 -10 4 -5 0 -10
-5 -10 -11z"/>
<path d="M2155 651 c-3 -5 -2 -12 3 -15 5 -3 9 1 9 9 0 17 -3 19 -12 6z"/>
<path d="M2674 594 c1 -8 4 -15 7 -16 2 -2 3 -1 2 1 -2 2 2 9 7 16 7 8 5 12
-4 12 -8 0 -13 -6 -12 -13z"/>
<path d="M2653 543 c4 -3 1 -13 -6 -22 -11 -14 -10 -14 5 -2 16 12 16 31 1 31
-4 0 -3 -3 0 -7z"/>
</g>
</svg>
